<svg width="191" height="29" viewBox="0 0 191 29" fill="none" xmlns="http://www.w3.org/2000/svg">
<path d="M11.44 0.495999C14.032 0.495999 16.224 0.735999 18.016 1.216C19.808 1.696 21.232 2.624 22.288 4C23.376 5.344 23.92 7.28 23.92 9.808C23.92 10.928 23.744 12.08 23.392 13.264C23.072 14.416 22.656 15.424 22.144 16.288C21.664 17.152 21.232 17.712 20.848 17.968C20.4 18.288 19.408 18.544 17.872 18.736C16.336 18.896 14.528 18.976 12.448 18.976C11.712 18.976 10.576 18.944 9.04 18.88V28H0.4V0.639997C3.76 0.543999 7.44 0.495999 11.44 0.495999ZM15.04 12.832C15.36 12.416 15.52 11.584 15.52 10.336C15.52 8.704 15.168 7.552 14.464 6.88C13.792 6.208 12.608 5.872 10.912 5.872C10.336 5.872 9.712 5.92 9.04 6.016V13.312C9.36 13.344 9.984 13.36 10.912 13.36C13.376 13.36 14.752 13.184 15.04 12.832ZM51.8901 28H42.8181L41.1861 21.088C41.1221 20.832 41.0101 20.4 40.8501 19.792C40.7221 19.152 40.5621 18.688 40.3701 18.4C40.1781 18.08 39.9061 17.872 39.5541 17.776C38.6581 17.808 37.3461 17.824 35.6181 17.824V28H26.9781V0.88C30.8501 0.592 34.4661 0.448 37.8261 0.448C40.8661 0.448 43.3301 0.704 45.2181 1.216C47.1061 1.696 48.5141 2.544 49.4421 3.76C50.4021 4.944 50.8821 6.576 50.8821 8.656C50.8821 10.608 50.4341 12.144 49.5381 13.264C48.6421 14.352 47.2021 15.008 45.2181 15.232V15.52C46.3381 15.616 47.2661 15.984 48.0021 16.624C48.7701 17.232 49.2821 18.016 49.5381 18.976L51.8901 28ZM35.6181 12.4C35.9061 12.432 36.4661 12.448 37.2981 12.448C39.7621 12.448 41.2021 12.24 41.6181 11.824C42.0021 11.44 42.1941 10.544 42.1941 9.136C42.1941 7.824 41.8421 6.928 41.1381 6.448C40.4661 5.968 39.3461 5.728 37.7781 5.728C37.4261 5.728 36.7061 5.76 35.6181 5.824V12.4ZM68.1659 28.624C63.3979 28.624 59.8139 27.504 57.4139 25.264C55.0459 22.992 53.8619 19.36 53.8619 14.368C53.8619 9.472 55.1739 5.904 57.7979 3.664C60.4219 1.424 63.8939 0.303999 68.2139 0.303999C77.3019 0.303999 81.8459 4.832 81.8459 13.888C81.8459 18.464 80.7259 22.064 78.4859 24.688C76.2779 27.312 72.8379 28.624 68.1659 28.624ZM67.9739 22.96C68.8699 22.96 69.6219 22.816 70.2299 22.528C70.8379 22.208 71.3179 21.664 71.6699 20.896C72.3419 19.584 72.6779 17.44 72.6779 14.464C72.6779 11.552 72.3419 9.44 71.6699 8.128C70.9979 6.784 69.7659 6.08 67.9739 6.016C67.3019 6.016 66.5979 6.096 65.8619 6.256C65.1579 6.384 64.7099 6.576 64.5179 6.832C64.1339 7.28 63.8299 8.24 63.6059 9.712C63.4139 11.152 63.3179 12.736 63.3179 14.464C63.3179 17.152 63.5739 19.12 64.0859 20.368C64.4379 21.296 64.9339 21.968 65.5739 22.384C66.2139 22.768 67.0139 22.96 67.9739 22.96ZM120.946 28H112.882L112.258 12.928C112.162 9.952 112.05 7.696 111.922 6.16H111.778C111.394 7.376 110.946 9.264 110.434 11.824L110.194 13.024L106.882 28H98.8176L96.0336 14.512L95.5536 12.112C94.8816 9.136 94.4176 7.152 94.1616 6.16H94.0176C93.8896 7.76 93.7776 10.368 93.6816 13.984C93.6496 14.208 93.6336 14.56 93.6336 15.04L93.2016 28H85.0896L86.2416 0.639997H99.9696L102.322 12.448L102.898 15.616C103.154 14.624 103.394 13.52 103.618 12.304L105.826 0.639997H119.842L120.946 28ZM160.461 28H152.397L151.773 12.928C151.677 9.952 151.565 7.696 151.437 6.16H151.293C150.909 7.376 150.461 9.264 149.949 11.824L149.709 13.024L146.397 28H138.333L135.549 14.512L135.069 12.112C134.397 9.136 133.933 7.152 133.677 6.16H133.533C133.405 7.76 133.293 10.368 133.197 13.984C133.165 14.208 133.149 14.56 133.149 15.04L132.717 28H124.605L125.757 0.639997H139.485L141.837 12.448L142.413 15.616C142.669 14.624 142.909 13.52 143.133 12.304L145.341 0.639997H159.357L160.461 28ZM180.537 22H172.569L171.129 28H162.297L171.129 0.639997H182.409L190.857 28H181.977L180.537 22ZM176.505 6.544L173.673 16.672H179.385L176.697 6.544H176.505Z" fill="white"/>
</svg>
